<?xml version="1.0" standalone="no"?>
<!DOCTYPE svg PUBLIC "-//W3C//DTD SVG 20010904//EN"
 "http://www.w3.org/TR/2001/REC-SVG-20010904/DTD/svg10.dtd">
<svg version="1.0" xmlns="http://www.w3.org/2000/svg"
 width="86.000000pt" height="105.000000pt" viewBox="0 0 86.000000 105.000000"
 preserveAspectRatio="xMidYMid meet">

<g transform="translate(0.000000,105.000000) scale(0.100000,-0.100000)"
fill="#000000" stroke="none">
<path d="M374 991 c-18 -11 -35 -24 -38 -30 -5 -7 -15 -7 -32 -1 -48 19 -114
-11 -134 -61 -17 -41 1 -99 40 -133 25 -20 30 -32 30 -69 0 -37 -4 -46 -24
-55 -14 -6 -37 -31 -51 -56 -22 -37 -32 -46 -54 -46 -15 0 -37 -9 -49 -20 -61
-57 -26 -190 50 -190 23 0 32 -7 43 -34 8 -18 34 -51 58 -72 24 -22 49 -55 56
-75 27 -84 118 -129 212 -105 62 16 95 47 116 107 10 29 26 52 39 58 25 11 69
66 79 99 5 17 14 22 39 22 48 0 69 29 74 100 4 53 2 61 -21 84 -17 16 -37 26
-56 26 -25 0 -33 6 -47 35 -9 19 -29 46 -45 59 -24 20 -29 33 -29 67 0 35 5
47 31 69 26 21 32 35 36 76 5 43 2 54 -22 82 -30 36 -81 50 -115 32 -19 -10
-24 -10 -32 4 -12 22 -61 46 -95 46 -15 0 -42 -9 -59 -19z m112 -52 c7 -6 16
-24 19 -40 4 -16 9 -29 12 -29 3 0 19 11 35 25 30 26 56 26 86 3 31 -25 -2
-108 -43 -108 -12 0 -15 -13 -15 -55 l0 -55 -145 0 -145 0 0 55 c0 47 -3 55
-18 55 -22 0 -47 25 -56 57 -5 17 0 29 19 48 29 30 59 27 86 -8 18 -22 39 -16
39 13 0 30 49 63 84 56 16 -3 35 -11 42 -17z m136 -339 c35 -27 46 -61 51
-163 4 -75 2 -93 -17 -129 -34 -67 -67 -78 -224 -78 -147 0 -171 7 -216 60
-24 30 -26 38 -26 138 0 89 3 112 19 136 34 51 52 55 227 56 146 0 164 -2 186
-20z m-484 -160 c-3 -28 -8 -54 -12 -57 -14 -14 -41 15 -44 46 -4 37 12 61 40
61 19 0 20 -5 16 -50z m630 38 c16 -16 16 -70 0 -86 -26 -26 -38 -13 -38 43 0
56 12 69 38 43z m-218 -309 c0 -6 -15 -26 -34 -45 -28 -28 -42 -34 -76 -34
-47 0 -77 13 -102 44 -34 42 -26 46 97 46 77 0 115 -4 115 -11z"/>
<path d="M334 797 c-10 -27 0 -72 16 -72 11 0 15 11 15 39 0 40 -20 61 -31 33z"/>
<path d="M414 797 c-10 -27 0 -72 16 -72 11 0 15 11 15 39 0 40 -20 61 -31 33z"/>
<path d="M507 803 c-11 -11 -8 -71 4 -79 14 -8 29 14 29 42 0 23 -23 48 -33
37z"/>
<path d="M280 520 c-11 -11 -20 -28 -20 -38 0 -24 31 -52 57 -52 23 0 53 30
53 53 0 21 -35 57 -55 57 -8 0 -24 -9 -35 -20z"/>
<path d="M510 520 c-24 -24 -25 -38 -4 -68 19 -28 57 -29 84 -2 26 26 25 42
-3 68 -29 27 -51 28 -77 2z"/>
<path d="M332 366 c-3 -5 7 -20 22 -33 38 -33 114 -32 153 1 15 13 25 27 21
31 -10 10 -189 11 -196 1z"/>
</g>
</svg>
